<svg width="22" height="22" viewBox="0 0 22 22" fill="none" xmlns="http://www.w3.org/2000/svg">
<path d="M10.5664 19.5815C5.82504 19.5815 1.96484 15.6154 1.96484 10.7439C1.96484 5.87241 5.82504 1.90625 10.5664 1.90625C15.3077 1.90625 19.1679 5.87241 19.1679 10.7439C19.1679 15.6154 15.3077 19.5815 10.5664 19.5815ZM10.5664 3.19956C6.51316 3.19956 3.2236 6.58804 3.2236 10.7439C3.2236 14.8997 6.51316 18.2882 10.5664 18.2882C14.6196 18.2882 17.9091 14.8997 17.9091 10.7439C17.9091 6.58804 14.6196 3.19956 10.5664 3.19956Z" fill="#212731"/>
<path d="M19.3779 20.4433C19.2185 20.4433 19.059 20.383 18.9331 20.2536L17.2548 18.5292C17.0114 18.2792 17.0114 17.8653 17.2548 17.6153C17.4981 17.3652 17.901 17.3652 18.1443 17.6153L19.8227 19.3397C20.066 19.5897 20.066 20.0036 19.8227 20.2536C19.6968 20.383 19.5373 20.4433 19.3779 20.4433Z" fill="#212731"/>
</svg>
